<svg width="80" height="86" viewBox="0 0 80 86" fill="none" xmlns="http://www.w3.org/2000/svg">
<rect x="32.2383" y="55.0444" width="3.71981" height="3.98873" fill="white"/>
<rect width="3.71981" height="3.98873" transform="matrix(-1 0 0 1 47.1172 55.0444)" fill="white"/>
<rect x="28.5186" y="55.0444" width="3.71981" height="3.98873" fill="white"/>
<rect x="28.5186" y="46.9341" width="3.71981" height="3.98873" fill="white"/>
<rect x="32.2383" y="46.9341" width="3.71981" height="3.98873" fill="white"/>
<rect x="35.958" y="46.9341" width="3.71981" height="3.98873" fill="white"/>
<rect x="39.6777" y="46.9341" width="3.71981" height="3.98873" fill="white"/>
<rect x="43.3984" y="46.9341" width="3.71981" height="3.98873" fill="white"/>
<rect x="47.1172" y="46.9341" width="3.71981" height="3.98873" fill="white"/>
<rect x="54.5566" y="42.9453" width="3.71981" height="3.98873" fill="white"/>
<rect x="21.0791" y="42.9453" width="3.71981" height="3.98873" fill="white"/>
<rect x="24.7988" y="26.9907" width="3.71981" height="3.98873" fill="white"/>
<rect x="50.8369" y="26.9907" width="3.71981" height="3.98873" fill="white"/>
<rect x="24.7988" y="50.9229" width="3.71981" height="3.98873" fill="white"/>
<rect x="17.3594" y="50.9229" width="3.71981" height="3.98873" fill="white"/>
<rect x="50.8369" y="50.9229" width="3.71981" height="3.98873" fill="white"/>
<rect x="58.2773" y="50.9229" width="3.71981" height="3.98873" fill="white"/>
<rect width="3.71981" height="3.98873" transform="matrix(-1 0 0 1 50.8369 55.0444)" fill="white"/>
<rect x="17.3594" y="49.9922" width="3.71981" height="3.98873" fill="#9767BB"/>
<rect width="3.71981" height="3.98873" transform="matrix(-1 0 0 1 61.9971 49.9922)" fill="#8B49BC"/>
<rect x="17.3594" y="46.0034" width="3.71981" height="3.98873" fill="#9767BB"/>
<rect width="3.71981" height="3.98873" transform="matrix(-1 0 0 1 61.9971 46.0034)" fill="#8B49BC"/>
<rect x="17.3594" y="42.0146" width="3.71981" height="3.98873" fill="#9767BB"/>
<rect width="3.71981" height="3.98873" transform="matrix(-1 0 0 1 61.9971 42.0146)" fill="#8B49BC"/>
<rect x="35.958" y="46.0034" width="3.71981" height="3.98873" fill="#C384F2"/>
<rect width="3.71981" height="3.98873" transform="matrix(-1 0 0 1 43.3984 46.0034)" fill="#B655FF"/>
<rect x="35.958" y="42.0146" width="3.71981" height="3.98873" fill="#C384F2"/>
<rect width="3.71981" height="3.98873" transform="matrix(-1 0 0 1 43.3984 42.0146)" fill="#B655FF"/>
<rect x="35.958" y="38.0259" width="3.71981" height="3.98873" fill="#C384F2"/>
<rect width="3.71981" height="3.98873" transform="matrix(-1 0 0 1 43.3984 38.0259)" fill="#B655FF"/>
<rect x="35.958" y="34.0371" width="3.71981" height="3.98873" fill="#C384F2"/>
<rect width="3.71981" height="3.98873" transform="matrix(-1 0 0 1 43.3984 34.0371)" fill="#B655FF"/>
<rect x="32.2383" y="53.981" width="3.71981" height="3.98873" fill="#9767BB"/>
<rect width="3.71981" height="3.98873" transform="matrix(-1 0 0 1 47.1172 53.981)" fill="#9767BB"/>
<rect x="32.2383" y="46.0034" width="3.71981" height="3.98873" fill="#C384F2"/>
<rect width="3.71981" height="3.98873" transform="matrix(-1 0 0 1 47.1172 46.0034)" fill="#B655FF"/>
<rect x="32.2383" y="42.0146" width="3.71981" height="3.98873" fill="#C384F2"/>
<rect width="3.71981" height="3.98873" transform="matrix(-1 0 0 1 47.1172 42.0146)" fill="#B655FF"/>
<rect x="32.2383" y="38.0259" width="3.71981" height="3.98873" fill="#C384F2"/>
<rect width="3.71981" height="3.98873" transform="matrix(-1 0 0 1 47.1172 38.0259)" fill="#B655FF"/>
<rect x="32.2383" y="34.0371" width="3.71981" height="3.98873" fill="#C384F2"/>
<rect width="3.71981" height="3.98873" transform="matrix(-1 0 0 1 47.1172 34.0371)" fill="#B655FF"/>
<rect x="28.5186" y="53.981" width="3.71981" height="3.98873" fill="#9767BB"/>
<rect width="3.71981" height="3.98873" transform="matrix(-1 0 0 1 50.8369 53.981)" fill="#9767BB"/>
<rect x="28.5186" y="46.0034" width="3.71981" height="3.98873" fill="#C384F2"/>
<rect width="3.71981" height="3.98873" transform="matrix(-1 0 0 1 50.8369 46.0034)" fill="#B655FF"/>
<rect x="28.5186" y="42.0146" width="3.71981" height="3.98873" fill="#C384F2"/>
<rect width="3.71981" height="3.98873" transform="matrix(-1 0 0 1 50.8369 42.0146)" fill="#B655FF"/>
<rect x="28.5186" y="38.0259" width="3.71981" height="3.98873" fill="#0D0206"/>
<rect width="3.71981" height="3.98873" transform="matrix(-1 0 0 1 50.8369 38.0259)" fill="#0D0206"/>
<rect x="28.5186" y="34.0371" width="3.71981" height="3.98873" fill="#C384F2"/>
<rect width="3.71981" height="3.98873" transform="matrix(-1 0 0 1 50.8369 34.0371)" fill="#B655FF"/>
<rect x="28.5186" y="30.0483" width="3.71981" height="3.98873" fill="#9767BB"/>
<rect width="3.71981" height="3.98873" transform="matrix(-1 0 0 1 50.8369 30.0483)" fill="#8B49BC"/>
<rect x="24.7988" y="49.9922" width="3.71981" height="3.98873" fill="#9767BB"/>
<rect width="3.71981" height="3.98873" transform="matrix(-1 0 0 1 54.5566 49.9922)" fill="#8B49BC"/>
<rect x="24.7988" y="46.0034" width="3.71981" height="3.98873" fill="#C384F2"/>
<rect width="3.71981" height="3.98873" transform="matrix(-1 0 0 1 54.5566 46.0034)" fill="#B655FF"/>
<rect x="24.7988" y="42.0146" width="3.71981" height="3.98873" fill="#C384F2"/>
<rect width="3.71981" height="3.98873" transform="matrix(-1 0 0 1 54.5566 42.0146)" fill="#B655FF"/>
<rect x="24.7988" y="38.0259" width="3.71981" height="3.98873" fill="#C384F2"/>
<rect width="3.71981" height="3.98873" transform="matrix(-1 0 0 1 54.5566 38.0259)" fill="#B655FF"/>
<rect x="24.7988" y="34.0371" width="3.71981" height="3.98873" fill="#C384F2"/>
<rect width="3.71981" height="3.98873" transform="matrix(-1 0 0 1 54.5566 34.0371)" fill="#B655FF"/>
<rect x="24.7988" y="26.0596" width="3.71981" height="3.98873" fill="#9767BB"/>
<rect width="3.71981" height="3.98873" transform="matrix(-1 0 0 1 54.5566 26.0596)" fill="#8B49BC"/>
<rect x="21.0791" y="42.0146" width="3.71981" height="3.98873" fill="#9767BB"/>
<rect width="3.71981" height="3.98873" transform="matrix(-1 0 0 1 58.2773 42.0146)" fill="#8B49BC"/>
<rect x="21.0791" y="38.0259" width="3.71981" height="3.98873" fill="#9767BB"/>
<rect width="3.71981" height="3.98873" transform="matrix(-1 0 0 1 58.2773 38.0259)" fill="#8B49BC"/>
<rect opacity="0.15" x="8.51202" y="11.512" width="62.976" height="62.976" fill="url(#paint0_linear_2262_13760)" stroke="white" strokeWidth="1.02405"/>
<path d="M71.998 18V11L64.998 11" stroke="white" strokeWidth="1.5"/>
<path d="M71.999 68V75H64.999" stroke="white" strokeWidth="1.5"/>
<path d="M7.99902 18V11L14.999 11" stroke="white" strokeWidth="1.5"/>
<path d="M8 68V75H15" stroke="white" strokeWidth="1.5"/>
<defs>
<linearGradient id="paint0_linear_2262_13760" x1="8" y1="43" x2="72" y2="43" gradientUnits="userSpaceOnUse">
<stop stopColor="#1D1D3E"/>
<stop offset="1" stopColor="#7979AC"/>
</linearGradient>
</defs>
</svg>
