<svg width="1850" height="8" viewBox="0 0 1850 8" fill="none" xmlns="http://www.w3.org/2000/svg">
<path d="M0.6 8V0.00799936H8.592V8H0.6ZM30.2016 8V0.00799936H38.1936V8H30.2016ZM59.8031 8V0.00799936H67.7951V8H59.8031ZM89.4047 8V0.00799936H97.3967V8H89.4047ZM119.006 8V0.00799936H126.998V8H119.006ZM148.608 8V0.00799936H156.6V8H148.608ZM178.209 8V0.00799936H186.201V8H178.209ZM207.811 8V0.00799936H215.803V8H207.811ZM237.413 8V0.00799936H245.405V8H237.413ZM267.014 8V0.00799936H275.006V8H267.014ZM296.616 8V0.00799936H304.608V8H296.616ZM326.217 8V0.00799936H334.209V8H326.217ZM355.819 8V0.00799936H363.811V8H355.819ZM385.42 8V0.00799936H393.412V8H385.42ZM415.022 8V0.00799936H423.014V8H415.022ZM444.623 8V0.00799936H452.615V8H444.623ZM474.225 8V0.00799936H482.217V8H474.225ZM503.827 8V0.00799936H511.819V8H503.827ZM533.428 8V0.00799936H541.42V8H533.428ZM563.03 8V0.00799936H571.022V8H563.03ZM592.631 8V0.00799936H600.623V8H592.631ZM622.233 8V0.00799936H630.225V8H622.233ZM651.834 8V0.00799936H659.826V8H651.834ZM681.436 8V0.00799936H689.428V8H681.436ZM711.038 8V0.00799936H719.03V8H711.038ZM740.639 8V0.00799936H748.631V8H740.639ZM770.241 8V0.00799936H778.233V8H770.241ZM799.842 8V0.00799936H807.834V8H799.842ZM829.444 8V0.00799936H837.436V8H829.444ZM859.045 8V0.00799936H867.037V8H859.045ZM888.647 8V0.00799936H896.639V8H888.647ZM918.248 8V0.00799936H926.24V8H918.248ZM947.85 8V0.00799936H955.842V8H947.85ZM977.452 8V0.00799936H985.444V8H977.452ZM1007.05 8V0.00799936H1015.05V8H1007.05ZM1036.65 8V0.00799936H1044.65V8H1036.65ZM1066.26 8V0.00799936H1074.25V8H1066.26ZM1095.86 8V0.00799936H1103.85V8H1095.86ZM1125.46 8V0.00799936H1133.45V8H1125.46ZM1155.06 8V0.00799936H1163.05V8H1155.06ZM1184.66 8V0.00799936H1192.65V8H1184.66ZM1214.26 8V0.00799936H1222.26V8H1214.26ZM1243.87 8V0.00799936H1251.86V8H1243.87ZM1273.47 8V0.00799936H1281.46V8H1273.47ZM1303.07 8V0.00799936H1311.06V8H1303.07ZM1332.67 8V0.00799936H1340.66V8H1332.67ZM1362.27 8V0.00799936H1370.26V8H1362.27ZM1391.87 8V0.00799936H1399.87V8H1391.87ZM1421.48 8V0.00799936H1429.47V8H1421.48ZM1451.08 8V0.00799936H1459.07V8H1451.08ZM1480.68 8V0.00799936H1488.67V8H1480.68ZM1510.28 8V0.00799936H1518.27V8H1510.28ZM1539.88 8V0.00799936H1547.87V8H1539.88ZM1569.48 8V0.00799936H1577.47V8H1569.48ZM1599.08 8V0.00799936H1607.08V8H1599.08ZM1628.69 8V0.00799936H1636.68V8H1628.69ZM1658.29 8V0.00799936H1666.28V8H1658.29ZM1687.89 8V0.00799936H1695.88V8H1687.89ZM1717.49 8V0.00799936H1725.48V8H1717.49ZM1747.09 8V0.00799936H1755.08V8H1747.09ZM1776.69 8V0.00799936H1784.69V8H1776.69ZM1806.3 8V0.00799936H1814.29V8H1806.3ZM1835.9 8V0.00799936H1843.89V8H1835.9ZM1865.5 8V0.00799936H1873.49V8H1865.5ZM1895.1 8V0.00799936H1903.09V8H1895.1ZM1924.7 8V0.00799936H1932.69V8H1924.7ZM1954.3 8V0.00799936H1962.3V8H1954.3ZM1983.9 8V0.00799936H1991.9V8H1983.9ZM2013.51 8V0.00799936H2021.5V8H2013.51ZM2043.11 8V0.00799936H2051.1V8H2043.11ZM2072.71 8V0.00799936H2080.7V8H2072.71ZM2102.31 8V0.00799936H2110.3V8H2102.31ZM2131.91 8V0.00799936H2139.9V8H2131.91ZM2161.51 8V0.00799936H2169.51V8H2161.51ZM2191.12 8V0.00799936H2199.11V8H2191.12ZM2220.72 8V0.00799936H2228.71V8H2220.72ZM2250.32 8V0.00799936H2258.31V8H2250.32ZM2279.92 8V0.00799936H2287.91V8H2279.92Z" fill="#614C94"/>
</svg>
