<svg width="199" height="134" viewBox="0 0 199 134" fill="none" xmlns="http://www.w3.org/2000/svg">
<rect y="76.5273" width="9.46429" height="9.56591" fill="#908BB3"/>
<rect x="189.285" y="76.5273" width="9.46429" height="9.56591" fill="#908BB3"/>
<rect x="9.46484" y="76.5273" width="9.46429" height="9.56591" fill="#908BB3"/>
<rect x="9.46484" y="86.0938" width="9.46429" height="9.56591" fill="#7279A6"/>
<rect x="170.357" y="76.5273" width="9.46429" height="9.56591" fill="#908BB3"/>
<rect x="170.357" y="86.0938" width="9.46429" height="9.56591" fill="#7279A6"/>
<rect x="170.357" y="95.6582" width="9.46429" height="9.56591" fill="#555D84"/>
<rect x="18.9277" y="76.5273" width="9.46429" height="9.56591" fill="#908BB3"/>
<rect x="18.9277" y="86.0938" width="9.46429" height="9.56591" fill="#7279A6"/>
<rect x="18.9277" y="95.6582" width="9.46429" height="9.56591" fill="#555D84"/>
<rect x="28.3926" y="76.5273" width="9.46429" height="9.56591" fill="#908BB3"/>
<rect x="28.3926" y="86.0938" width="9.46429" height="9.56591" fill="#7279A6"/>
<rect x="28.3926" y="95.6582" width="9.46429" height="9.56591" fill="#555D84"/>
<rect x="37.8574" y="76.5273" width="9.46429" height="9.56591" fill="#908BB3"/>
<rect x="37.8574" y="86.0938" width="9.46429" height="9.56591" fill="#7279A6"/>
<rect x="37.8574" y="95.6582" width="9.46429" height="9.56591" fill="#555D84"/>
<rect x="37.8574" y="105.225" width="9.46429" height="9.56591" fill="#555D84"/>
<rect x="141.965" y="105.225" width="9.46429" height="9.56591" fill="#555D84"/>
<rect x="47.3223" y="76.5273" width="9.46429" height="9.56591" fill="#908BB3"/>
<rect x="47.3223" y="86.0938" width="9.46429" height="9.56591" fill="#7279A6"/>
<rect x="47.3223" y="95.6582" width="9.46429" height="9.56591" fill="#555D84"/>
<rect x="47.3223" y="105.225" width="9.46429" height="9.56591" fill="#555D84"/>
<rect x="151.428" y="105.225" width="9.46429" height="9.56591" fill="#555D84"/>
<rect x="151.428" y="114.791" width="9.46429" height="9.56591" fill="#908BB3"/>
<rect x="37.8574" y="114.791" width="9.46429" height="9.56591" fill="#908BB3"/>
<rect x="160.893" y="124.357" width="9.46429" height="9.56591" fill="#908BB3"/>
<rect x="28.3926" y="124.357" width="9.46429" height="9.56591" fill="#908BB3"/>
<rect x="56.7852" y="76.5273" width="9.46429" height="9.56591" fill="#908BB3"/>
<rect x="56.7852" y="86.0938" width="9.46429" height="9.56591" fill="#7279A6"/>
<rect x="56.7852" y="95.6582" width="9.46429" height="9.56591" fill="#555D84"/>
<rect x="66.25" y="76.5273" width="9.46429" height="9.56591" fill="#908BB3"/>
<rect x="66.25" y="86.0938" width="9.46429" height="9.56591" fill="#7279A6"/>
<rect x="66.25" y="95.6582" width="9.46429" height="9.56591" fill="#555D84"/>
<rect x="75.7148" y="76.5273" width="9.46429" height="9.56591" fill="#908BB3"/>
<rect x="75.7148" y="86.0938" width="9.46429" height="9.56591" fill="#7279A6"/>
<rect x="75.7148" y="95.6582" width="9.46429" height="9.56591" fill="#555D84"/>
<rect x="85.1777" y="76.5273" width="9.46429" height="9.56591" fill="#908BB3"/>
<rect x="85.1777" y="86.0938" width="9.46429" height="9.56591" fill="#7279A6"/>
<rect x="85.1777" y="95.6582" width="9.46429" height="9.56591" fill="#555D84"/>
<rect x="85.1777" y="105.225" width="9.46429" height="9.56591" fill="#555D84"/>
<rect x="85.1777" y="114.791" width="9.46429" height="9.56591" fill="#908BB3"/>
<rect x="94.6426" y="76.5273" width="9.46429" height="9.56591" fill="#908BB3"/>
<rect x="94.6426" y="86.0938" width="9.46429" height="9.56591" fill="#7279A6"/>
<rect x="94.6426" y="95.6582" width="9.46429" height="9.56591" fill="#555D84"/>
<rect x="94.6426" y="105.225" width="9.46429" height="9.56591" fill="#555D84"/>
<rect x="94.6426" y="114.791" width="9.46429" height="9.56591" fill="#908BB3"/>
<rect x="94.6426" y="124.357" width="9.46429" height="9.56591" fill="#908BB3"/>
<rect x="104.107" y="76.5273" width="9.46429" height="9.56591" fill="#908BB3"/>
<rect x="104.107" y="86.0938" width="9.46429" height="9.56591" fill="#7279A6"/>
<rect x="104.107" y="95.6582" width="9.46429" height="9.56591" fill="#555D84"/>
<rect x="104.107" y="105.225" width="9.46429" height="9.56591" fill="#555D84"/>
<rect x="104.107" y="114.791" width="9.46429" height="9.56591" fill="#908BB3"/>
<rect x="113.572" y="76.5273" width="9.46429" height="9.56591" fill="#908BB3"/>
<rect x="113.572" y="86.0938" width="9.46429" height="9.56591" fill="#7279A6"/>
<rect x="113.572" y="95.6582" width="9.46429" height="9.56591" fill="#555D84"/>
<rect x="123.035" y="76.5273" width="9.46429" height="9.56591" fill="#908BB3"/>
<rect x="123.035" y="86.0938" width="9.46429" height="9.56591" fill="#7279A6"/>
<rect x="123.035" y="95.6582" width="9.46429" height="9.56591" fill="#555D84"/>
<rect x="132.5" y="76.5273" width="9.46429" height="9.56591" fill="#908BB3"/>
<rect x="132.5" y="86.0938" width="9.46429" height="9.56591" fill="#7279A6"/>
<rect x="132.5" y="95.6582" width="9.46429" height="9.56591" fill="#555D84"/>
<rect x="141.965" y="76.5273" width="9.46429" height="9.56591" fill="#908BB3"/>
<rect x="141.965" y="86.0938" width="9.46429" height="9.56591" fill="#7279A6"/>
<rect x="141.965" y="95.6582" width="9.46429" height="9.56591" fill="#555D84"/>
<rect x="151.428" y="76.5273" width="9.46429" height="9.56591" fill="#908BB3"/>
<rect x="151.428" y="86.0938" width="9.46429" height="9.56591" fill="#7279A6"/>
<rect x="151.428" y="95.6582" width="9.46429" height="9.56591" fill="#555D84"/>
<rect x="160.893" y="76.5273" width="9.46429" height="9.56591" fill="#908BB3"/>
<rect x="160.893" y="86.0938" width="9.46429" height="9.56591" fill="#7279A6"/>
<rect x="160.893" y="95.6582" width="9.46429" height="9.56591" fill="#555D84"/>
<rect x="179.822" y="76.5273" width="9.46429" height="9.56591" fill="#908BB3"/>
<rect x="179.822" y="86.0938" width="9.46429" height="9.56591" fill="#7279A6"/>
<rect y="66.9609" width="9.46429" height="9.56591" fill="#908BB3"/>
<rect x="189.285" y="66.9609" width="9.46429" height="9.56591" fill="#908BB3"/>
<rect x="9.46484" y="66.9609" width="9.46429" height="9.56591" fill="#908BB3"/>
<rect x="170.357" y="66.9609" width="9.46429" height="9.56591" fill="#908BB3"/>
<rect x="9.46484" y="57.3945" width="9.46429" height="9.56591" fill="#908BB3"/>
<rect x="170.357" y="57.3945" width="9.46429" height="9.56591" fill="#908BB3"/>
<rect x="18.9277" y="66.9609" width="9.46429" height="9.56591" fill="#908BB3"/>
<rect x="28.3926" y="66.9609" width="9.46429" height="9.56591" fill="#908BB3"/>
<rect x="37.8574" y="66.9609" width="9.46429" height="9.56591" fill="#908BB3"/>
<rect x="47.3223" y="66.9609" width="9.46429" height="9.56591" fill="#908BB3"/>
<rect x="56.7852" y="66.9609" width="9.46429" height="9.56591" fill="#908BB3"/>
<rect x="66.25" y="66.9609" width="9.46429" height="9.56591" fill="#908BB3"/>
<rect x="75.7148" y="66.9609" width="9.46429" height="9.56591" fill="#908BB3"/>
<rect x="85.1777" y="66.9609" width="9.46429" height="9.56591" fill="#908BB3"/>
<rect x="94.6426" y="66.9609" width="9.46429" height="9.56591" fill="#908BB3"/>
<rect x="104.107" y="66.9609" width="9.46429" height="9.56591" fill="#908BB3"/>
<rect x="113.572" y="66.9609" width="9.46429" height="9.56591" fill="#908BB3"/>
<rect x="123.035" y="66.9609" width="9.46429" height="9.56591" fill="#908BB3"/>
<rect x="132.5" y="66.9609" width="9.46429" height="9.56591" fill="#908BB3"/>
<rect x="141.965" y="66.9609" width="9.46429" height="9.56591" fill="#908BB3"/>
<rect x="151.428" y="66.9609" width="9.46429" height="9.56591" fill="#908BB3"/>
<rect x="160.893" y="66.9609" width="9.46429" height="9.56591" fill="#908BB3"/>
<rect x="179.822" y="66.9609" width="9.46429" height="9.56591" fill="#908BB3"/>
<rect x="18.9277" y="57.3945" width="9.46429" height="9.56591" fill="#908BB3"/>
<rect x="179.822" y="57.3945" width="9.46429" height="9.56591" fill="#908BB3"/>
<rect x="28.3926" y="57.3945" width="9.46429" height="9.56591" fill="#4E5BC4"/>
<rect x="37.8574" y="57.3945" width="9.46429" height="9.56591" fill="#F1F8FF"/>
<rect x="47.3223" y="57.3945" width="9.46429" height="9.56591" fill="#7484E9"/>
<rect x="56.7852" y="57.3945" width="9.46429" height="9.56591" fill="#7484E9"/>
<rect x="66.25" y="57.3945" width="9.46429" height="9.56591" fill="#7484E9"/>
<rect x="75.7148" y="57.3945" width="9.46429" height="9.56591" fill="#7484E9"/>
<rect x="85.1777" y="57.3945" width="9.46429" height="9.56591" fill="#7484E9"/>
<rect x="94.6426" y="57.3945" width="9.46429" height="9.56591" fill="#7484E9"/>
<rect x="104.107" y="57.3945" width="9.46429" height="9.56591" fill="#7484E9"/>
<rect x="113.572" y="57.3945" width="9.46429" height="9.56591" fill="#7484E9"/>
<rect x="123.035" y="57.3945" width="9.46429" height="9.56591" fill="#7484E9"/>
<rect x="132.5" y="57.3945" width="9.46429" height="9.56591" fill="#7484E9"/>
<rect x="141.965" y="57.3945" width="9.46429" height="9.56591" fill="#7484E9"/>
<rect x="151.428" y="57.3945" width="9.46429" height="9.56591" fill="#7484E9"/>
<rect x="47.3223" y="47.8301" width="9.46429" height="9.56591" fill="#F1F8FF"/>
<rect x="56.7852" y="38.2637" width="9.46429" height="9.56591" fill="#F1F8FF"/>
<rect x="66.25" y="28.6973" width="9.46429" height="9.56591" fill="#F1F8FF"/>
<rect x="75.7148" y="19.1309" width="9.46429" height="9.56591" fill="#F1F8FF"/>
<rect x="85.1777" y="9.56641" width="9.46429" height="9.56591" fill="#F1F8FF"/>
<rect x="28.3926" y="47.8301" width="9.46429" height="9.56591" fill="#4E5BC4"/>
<rect x="37.8574" y="38.2637" width="9.46429" height="9.56591" fill="#4E5BC4"/>
<rect x="47.3223" y="28.6973" width="9.46429" height="9.56591" fill="#4E5BC4"/>
<rect x="56.7852" y="19.1309" width="9.46429" height="9.56591" fill="#4E5BC4"/>
<rect x="66.25" y="9.56641" width="9.46429" height="9.56591" fill="#4E5BC4"/>
<rect x="123.035" y="9.56641" width="9.46429" height="9.56591" fill="#4E5BC4"/>
<rect x="132.5" y="19.1309" width="9.46429" height="9.56591" fill="#4E5BC4"/>
<rect x="141.965" y="28.6973" width="9.46429" height="9.56591" fill="#4E5BC4"/>
<rect x="151.428" y="38.2637" width="9.46429" height="9.56591" fill="#4E5BC4"/>
<rect x="160.893" y="47.8301" width="9.46429" height="9.56591" fill="#4E5BC4"/>
<rect x="160.893" y="57.3945" width="9.46429" height="9.56591" fill="#4E5BC4"/>
<rect x="75.7148" width="9.46429" height="9.56591" fill="#4E5BC4"/>
<rect x="94.6426" width="9.46429" height="9.56591" fill="#4E5BC4"/>
<rect x="85.1777" width="9.46429" height="9.56591" fill="#4E5BC4"/>
<rect x="104.107" width="9.46429" height="9.56591" fill="#4E5BC4"/>
<rect x="113.572" width="9.46429" height="9.56591" fill="#4E5BC4"/>
<rect x="37.8574" y="47.8301" width="9.46429" height="9.56591" fill="#7E91FA"/>
<rect x="47.3223" y="38.2637" width="9.46429" height="9.56591" fill="#7E91FA"/>
<rect x="56.7852" y="28.6973" width="9.46429" height="9.56591" fill="#7E91FA"/>
<rect x="66.25" y="19.1309" width="9.46429" height="9.56591" fill="#7E91FA"/>
<rect x="75.7148" y="9.56641" width="9.46429" height="9.56591" fill="#7E91FA"/>
<rect x="113.572" y="9.56641" width="9.46429" height="9.56591" fill="#7E91FA"/>
<rect x="104.107" y="9.56641" width="9.46429" height="9.56591" fill="#7E91FA"/>
<rect x="94.6426" y="9.56641" width="9.46429" height="9.56591" fill="#7E91FA"/>
<rect x="123.035" y="19.1309" width="9.46429" height="9.56591" fill="#7E91FA"/>
<rect x="113.572" y="19.1309" width="9.46429" height="9.56591" fill="#7E91FA"/>
<rect x="104.107" y="19.1309" width="9.46429" height="9.56591" fill="#7E91FA"/>
<rect x="94.6426" y="19.1309" width="9.46429" height="9.56591" fill="#7E91FA"/>
<rect x="85.1777" y="19.1309" width="9.46429" height="9.56591" fill="#7E91FA"/>
<rect x="132.5" y="28.6973" width="9.46429" height="9.56591" fill="#7E91FA"/>
<rect x="123.035" y="28.6973" width="9.46429" height="9.56591" fill="#7E91FA"/>
<rect x="113.572" y="28.6973" width="9.46429" height="9.56591" fill="#7E91FA"/>
<rect x="104.107" y="28.6973" width="9.46429" height="9.56591" fill="#7E91FA"/>
<rect x="94.6426" y="28.6973" width="9.46429" height="9.56591" fill="#7E91FA"/>
<rect x="85.1777" y="28.6973" width="9.46429" height="9.56591" fill="#7E91FA"/>
<rect x="75.7148" y="28.6973" width="9.46429" height="9.56591" fill="#7E91FA"/>
<rect x="141.965" y="38.2637" width="9.46429" height="9.56591" fill="#7E91FA"/>
<rect x="132.5" y="38.2637" width="9.46429" height="9.56591" fill="#7E91FA"/>
<rect x="123.035" y="38.2637" width="9.46429" height="9.56591" fill="#7E91FA"/>
<rect x="113.572" y="38.2637" width="9.46429" height="9.56591" fill="#7E91FA"/>
<rect x="104.107" y="38.2637" width="9.46429" height="9.56591" fill="#7E91FA"/>
<rect x="94.6426" y="38.2637" width="9.46429" height="9.56591" fill="#7E91FA"/>
<rect x="85.1777" y="38.2637" width="9.46429" height="9.56591" fill="#7E91FA"/>
<rect x="75.7148" y="38.2637" width="9.46429" height="9.56591" fill="#7E91FA"/>
<rect x="66.25" y="38.2637" width="9.46429" height="9.56591" fill="#7E91FA"/>
<rect x="151.428" y="47.8301" width="9.46429" height="9.56591" fill="#7E91FA"/>
<rect x="141.965" y="47.8301" width="9.46429" height="9.56591" fill="#7E91FA"/>
<rect x="132.5" y="47.8301" width="9.46429" height="9.56591" fill="#7E91FA"/>
<rect x="123.035" y="47.8301" width="9.46429" height="9.56591" fill="#7E91FA"/>
<rect x="113.572" y="47.8301" width="9.46429" height="9.56591" fill="#7E91FA"/>
<rect x="104.107" y="47.8301" width="9.46429" height="9.56591" fill="#7E91FA"/>
<rect x="94.6426" y="47.8301" width="9.46429" height="9.56591" fill="#7E91FA"/>
<rect x="85.1777" y="47.8301" width="9.46429" height="9.56591" fill="#7E91FA"/>
<rect x="75.7148" y="47.8301" width="9.46429" height="9.56591" fill="#7E91FA"/>
<rect x="66.25" y="47.8301" width="9.46429" height="9.56591" fill="#7E91FA"/>
<rect x="56.7852" y="47.8301" width="9.46429" height="9.56591" fill="#7E91FA"/>
</svg>
