<svg width="142" height="101" viewBox="0 0 142 101" fill="none" xmlns="http://www.w3.org/2000/svg">
<path d="M44.2759 15.3623H46.1235C46.1235 15.3623 44.8245 13.9132 45.2332 12.3034C45.3258 11.9061 45.4981 11.3202 45.839 10.6733C46.1784 10.0294 46.4696 9.7331 47.007 8.95499C47.2832 8.55614 47.6632 7.97256 48.0719 7.22461C48.2043 6.825 48.3142 6.31003 48.2931 5.71514C48.2201 3.67336 46.6646 2.36596 46.3244 2.09302C46.5991 2.45191 46.9317 2.98422 47.1357 3.68693C47.6293 5.38263 47.022 6.84234 46.806 7.30528C46.657 7.31358 46.4659 7.30151 46.2634 7.22461C45.5688 6.96222 45.3649 6.18034 45.3393 6.0778C45.2889 6.22408 45.1594 6.66591 45.3393 7.16429C45.6223 7.94692 46.4185 8.17613 44.8148 10.2104C44.5438 10.6846 44.1051 11.4703 43.9614 12.5952C43.8071 13.8016 44.069 14.79 44.2752 15.3623H44.2759Z" fill="white"/>
<path d="M62.6437 39.7242L52.0386 24.1485L51.8354 24.1055L55.6667 21.1665L61.3387 18.8774C60.9504 17.5353 60.5621 16.1932 60.1737 14.8504C56.9197 15.1588 53.6656 15.4679 50.4123 15.7763C49.2676 15.4543 47.9627 15.1542 46.5155 14.9311C45.1285 14.7169 43.8469 14.6106 42.6993 14.5692C42.6323 16.0183 42.5653 17.4667 42.4983 18.9158C42.4848 19.9888 42.4712 21.0624 42.4584 22.1353L47.2793 32.2779L49.0471 38.3957L46.7977 43.3863L40.5311 44.3521L27.712 48.5616H16.7472L10.6409 52.7236L5.65966 54.4947H0.838745L5.33831 55.9438H10.4806L12.5697 59.4853V60.7851C13.7858 60.5145 15.1224 60.2769 16.5673 60.1081C18.4359 59.8894 20.1691 59.8223 21.7329 59.8442C21.9037 59.3201 22.3944 58.9416 22.9746 58.9416C23.6956 58.9416 24.2803 59.5275 24.2803 60.2498C24.2803 60.9721 23.6956 61.558 22.9746 61.558C22.4418 61.558 21.9835 61.2383 21.781 60.7799C20.23 60.7799 18.5601 60.8462 16.7878 61.0121C15.2894 61.1523 13.8806 61.3484 12.5704 61.5783L14.9365 65.2329C14.8703 65.1303 14.804 65.0285 14.7378 64.926C15.7312 64.8023 16.8051 64.7066 17.9505 64.6583C18.819 64.6214 19.649 64.6154 20.4377 64.6319C20.6176 64.1245 21.1007 63.7611 21.6689 63.7611C22.3899 63.7611 22.9746 64.3469 22.9746 65.0692C22.9746 65.7916 22.3899 66.3774 21.6689 66.3774C21.1022 66.3774 20.6198 66.0155 20.4392 65.5096C20.1691 65.4983 19.8921 65.49 19.6091 65.4854L18.8686 68.0316L18.8558 68.0279L16.3679 68.0286L15.8343 72.5721C15.8629 72.3256 15.8922 72.079 15.9208 71.8325C16.2708 71.7676 16.6523 71.7133 17.0625 71.6779C17.73 71.6198 18.3373 71.6243 18.8694 71.659C19.0252 71.1803 19.4744 70.8342 20.0042 70.8342C20.6635 70.8342 21.1986 71.3695 21.1986 72.0307C21.1986 72.692 20.6642 73.2273 20.0042 73.2273C19.8808 73.2273 19.7619 73.2085 19.6505 73.1738C19.1907 73.0313 18.9717 72.6309 18.913 72.5156C18.3757 72.4726 17.7262 72.4673 16.9993 72.5578C16.5605 72.6121 16.1624 72.6935 15.8095 72.7847L15.7831 73.0094L10.9457 77.001C11.8721 77.0108 12.7985 77.0213 13.7249 77.0311C13.8694 76.4657 14.3811 76.048 14.9899 76.048C15.7109 76.048 16.2956 76.6338 16.2956 77.3561C16.2956 78.0784 15.7109 78.6643 14.9899 78.6643C14.36 78.6643 13.8347 78.2179 13.7113 77.6238C12.581 77.5883 11.4499 77.5529 10.3195 77.5167L8.55175 94.2596H11.1225L11.4438 96.3526L10.4798 97.1579L10.9622 100.055H15.6221L13.2116 96.3526V94.099L11.2836 89.5909L13.3727 80.8976L27.7105 67.6961L29.7635 65.1205L38.1192 66.7303L42.1363 64.9592L46.7962 73.9745L45.6711 79.1264L46.9565 82.6679L47.1175 95.0641L49.0456 96.0299L48.2419 100.055H53.3841L51.1347 95.5466L50.8939 92.7893L49.6891 89.7101L49.3278 80.896L50.4725 79.3263L50.1714 75.2812L51.0151 65.5616L56.0166 57.1095L60.9579 52.8231L62.9462 46.182L62.6452 39.7219L62.6437 39.7242Z" fill="#E4E9EF"/>
<path d="M18.9551 65.4832C18.77 65.484 18.5819 65.487 18.3915 65.4915C17.2536 65.5187 16.203 65.6069 15.254 65.7267L16.361 67.4368H18.3869L18.9551 65.4832Z" fill="#E4E9EF"/>
<path d="M27.9851 69.3843L18.1431 77.3938L21.1556 86.7311L21.4371 93.3322L23.6865 93.8954L24.2893 95.9885L23.606 97.2363L23.4457 99.7719H28.226L26.9007 96.5517L25.9765 96.1898L26.1368 94.7007L22.7225 85.4433L23.0039 79.2049L27.9851 69.3843Z" fill="#E4E9EF"/>
<path d="M43.9033 20.8484L39.5648 21.8142L34.2623 17.1456H37.3154H43.9033V20.8484Z" fill="#CBCFD3"/>
<path d="M53.7055 63.752L55.8141 61.0957L55.9353 58.876L58.707 57.1117L65.6968 70.997L65.3356 75.0421L59.0682 77.6381L50.6922 83.6149V81.8641L51.7774 80.8379L51.596 78.7245L57.4412 76.3095L60.4544 73.412L60.5146 71.6613L53.7055 63.752Z" fill="#E4E9EF"/>
<path d="M33.7799 18.4333L36.1098 20.8483L38.6813 21.4922L36.2302 19.4798L34.8245 18.4333H33.7799Z" fill="white"/>
<path d="M49.2751 15.4792L46.8557 19.1978L52.0386 24.1485L55.2422 21.4922L61.338 18.8781L60.173 14.8511L52.2794 16.0583L49.2751 15.4792Z" fill="#C6BFBA"/>
<path d="M52.0386 24.1485L45.0714 27.6364L55.909 29.8328L52.0386 24.1485Z" fill="#CBCFD3"/>
<path d="M48.9681 38.1288L62.4473 39.4362L50.0495 54.0928L46.7955 43.387L48.9681 38.1288Z" fill="#CBCFD3"/>
<path d="M56.015 57.1118L60.9564 52.8254L62.9446 46.1843L55.9089 52.1611L56.015 57.1118Z" fill="#CBCFD3"/>
<path d="M42.1356 64.9599L34.0042 46.4957L29.7628 65.1205L38.1185 66.731L42.1356 64.9599Z" fill="#CBCFD3"/>
<path d="M55.7539 61.0958C55.0511 61.9809 54.3482 62.8669 53.6453 63.752L60.4544 71.6605C62.2019 71.4283 63.9493 71.1953 65.6968 70.9631C62.3825 67.6742 59.0682 64.3846 55.7539 61.0958Z" fill="#CBCFD3"/>
<path d="M49.0456 96.0315L51.134 95.5482L53.3841 100.056H48.2419L49.0456 96.0315Z" fill="white"/>
<path d="M42.5976 82.7901L42.3568 86.8344L45.7313 84.8123V82.0052L42.5976 82.7901Z" fill="white"/>
<path d="M24.2893 95.9885L23.606 97.2363L23.4457 99.7719H28.226L26.9007 96.5517L25.9765 96.1898L24.2893 95.9885Z" fill="white"/>
<path d="M11.4438 96.3534L10.4798 97.1579L10.9622 100.056H15.823L13.4012 96.6444L11.4438 96.3534Z" fill="white"/>
<path d="M12.6051 84.0922C11.8435 81.9003 11.0812 79.7093 10.3196 77.5175C12.0369 78.0075 13.755 78.4976 15.4724 78.9877C14.7725 79.6248 14.0726 80.2612 13.3727 80.8983L12.6051 84.0922Z" fill="#CBCFD3"/>
<path d="M18.1431 77.3561L23.0039 79.1671L21.1556 86.6934L18.1431 77.3561Z" fill="#CBCFD3"/>
<path d="M20.5153 75.4863L26.617 72.0383L27.9272 69.4552L20.5153 75.4863Z" fill="#CBCFD3"/>
<path d="M46.9979 85.8866C47.8392 85.815 48.6806 85.7434 49.522 85.6718L47.1168 95.0656C47.0769 92.0059 47.0377 88.9463 46.9979 85.8866Z" fill="#CBCFD3"/>
<path d="M43.3171 67.2452L50.2843 73.9655L51.0135 65.5639L52.4532 63.1315L43.3171 67.2452Z" fill="#CBCFD3"/>
<path d="M0.838745 54.4954C2.07671 54.8943 3.31467 55.2924 4.55264 55.6912C4.92139 55.2924 5.2909 54.8943 5.65966 54.4954H0.838745Z" fill="white"/>
<path d="M28.5338 0C28.5338 0 24.8455 8.03743 33.4209 12.5643C33.4209 12.5643 38.585 15.7982 42.5503 16.2596C42.8415 15.7966 43.132 15.3337 43.4225 14.8708C42.685 14.6792 41.9181 14.4515 41.1279 14.1809C38.6851 13.3439 36.6103 12.2952 34.9035 11.2554C34.7146 10.7932 34.4497 9.95933 34.5347 8.91506C34.6807 7.11757 35.7599 5.967 36.0948 5.63525C35.7637 5.75438 35.3039 5.96248 34.8267 6.32816C34.4 6.65538 34.1013 7.00071 33.9048 7.26762C33.6919 7.61143 33.3412 8.28624 33.3005 9.19253C33.2795 9.65773 33.3457 10.0536 33.4209 10.3469C33.4209 10.3469 28.5338 7.29778 29.4557 4.89635C29.5964 4.54349 29.8177 4.10015 30.1706 3.64927C30.8502 2.77917 31.66 2.33583 32.1303 2.12472C31.8097 2.08853 31.2641 2.0742 30.6628 2.30944C29.4015 2.80254 28.9221 3.98856 28.8341 4.21852C28.7242 3.82042 28.6271 3.37783 28.5571 2.89453C28.3961 1.77261 28.436 0.782632 28.5346 0L28.5338 0Z" fill="white"/>
<path d="M69.8765 47.4518V46.2967H71.0054V40.1834H69.8765V39.0283H73.2397C74.3603 39.0283 75.2197 39.3133 75.8157 39.8826C76.4118 40.4526 76.7105 41.3106 76.7105 42.4574V44.034C76.7105 45.1816 76.4118 46.0373 75.8157 46.6036C75.219 47.169 74.3603 47.4518 73.2397 47.4518H69.8765ZM72.3148 46.2726H73.2518C73.9802 46.2726 74.5206 46.0878 74.8735 45.7191C75.2257 45.3504 75.4018 44.8008 75.4018 44.0702V42.4099C75.4018 41.6718 75.2257 41.1221 74.8735 40.761C74.5213 40.3998 73.9802 40.2196 73.2518 40.2196H72.3148V46.2726Z" fill="#EFEAEA"/>
<path d="M78.1765 47.4518V39.0283H83.473V40.2075H79.4732V42.6263H83.1366V43.8055H79.4732V46.2726H83.5332V47.4518H78.1765Z" fill="#EFEAEA"/>
<path d="M84.8901 47.4518V39.0283H90.1867V40.2075H86.1868V42.6263H89.8503V43.8055H86.1868V46.2726H90.2469V47.4518H84.8901Z" fill="#EFEAEA"/>
<path d="M91.6045 47.4518V39.0283H95.1355C95.6563 39.0283 96.1146 39.1188 96.5105 39.299C96.9071 39.4792 97.2149 39.7386 97.4354 40.0748C97.6559 40.4119 97.7657 40.813 97.7657 41.2782V41.4109C97.7657 41.9402 97.6393 42.3639 97.3872 42.6806C97.1351 42.9973 96.8288 43.2204 96.4683 43.3486V43.5409C96.7724 43.5567 97.0169 43.6593 97.2013 43.8478C97.3857 44.0363 97.4775 44.3069 97.4775 44.6598V47.4518H96.1681V44.8408C96.1681 44.6244 96.1116 44.4517 96.0002 44.3235C95.8881 44.1953 95.7075 44.1313 95.4599 44.1313H92.9012V47.4525H91.6038L91.6045 47.4518ZM92.9019 42.9513H94.9918C95.4561 42.9513 95.8166 42.8329 96.0725 42.5962C96.3283 42.3594 96.457 42.0367 96.457 41.6273V41.5308C96.457 41.1214 96.3306 40.7987 96.0785 40.5619C95.8264 40.3252 95.4637 40.2068 94.9918 40.2068H92.9019V42.9505V42.9513Z" fill="#EFEAEA"/>
<path d="M99.9519 47.4518L98.7147 39.0283H100.012L101.021 46.5734H101.213L102.511 39.0283H104.781L106.079 46.5734H106.27L107.268 39.0283H108.565L107.328 47.4518H105.057L103.736 39.7981H103.544L102.234 47.4518H99.9527H99.9519Z" fill="#EFEAEA"/>
<path d="M109.224 47.4518L111.626 39.0283H113.908L116.298 47.4518H114.965L114.412 45.4666H111.121L110.569 47.4518H109.224H109.224ZM111.447 44.2632H114.089L112.864 39.8351H112.672L111.447 44.2632Z" fill="#EFEAEA"/>
<path d="M117.44 47.4518V39.0283H118.737V46.2726H122.785V47.4518H117.441H117.44Z" fill="#EFEAEA"/>
<path d="M123.974 47.4518V39.0283H125.271V42.5298H125.463L128.598 39.0283H130.291L126.496 43.1797L130.424 47.4518H128.682L125.464 43.8779H125.272V47.4518H123.974H123.974Z" fill="#EFEAEA"/>
<path d="M69.8765 61.083V59.9279H71.0054V53.8146H69.8765V52.6595H73.2397C74.3603 52.6595 75.2197 52.9446 75.8157 53.5138C76.4118 54.0838 76.7105 54.9418 76.7105 56.0887V57.6652C76.7105 58.8128 76.4118 59.6685 75.8157 60.2348C75.219 60.8003 74.3603 61.083 73.2397 61.083H69.8765ZM72.3148 59.9038H73.2518C73.9802 59.9038 74.5206 59.7191 74.8735 59.3504C75.2257 58.9817 75.4018 58.432 75.4018 57.7014V56.0412C75.4018 55.303 75.2257 54.7534 74.8735 54.3922C74.5213 54.031 73.9802 53.8508 73.2518 53.8508H72.3148V59.9038Z" fill="#EFEAEA"/>
<path d="M78.1765 61.083V52.6595H83.473V53.8388H79.4732V56.2575H83.1366V57.4368H79.4732V59.9038H83.5332V61.083H78.1765Z" fill="#EFEAEA"/>
<path d="M86.6082 61.083L84.2662 52.6595H85.6118L87.6535 60.2649H87.8101L89.8397 52.6595H91.1853L88.8554 61.083H86.6097H86.6082Z" fill="#EFEAEA"/>
<path d="M92.3246 61.083V52.6595H97.6212V53.8388H93.6213V56.2575H97.2848V57.4368H93.6213V59.9038H97.6814V61.083H92.3246Z" fill="#EFEAEA"/>
<path d="M99.0391 61.083V52.6595H100.336V59.9038H104.385V61.083H99.0398H99.0391Z" fill="#EFEAEA"/>
<path d="M108.732 61.2511C107.699 61.2511 106.878 60.9601 106.27 60.3787C105.661 59.7974 105.357 58.9567 105.357 57.8574V55.8843C105.357 54.785 105.661 53.945 106.27 53.363C106.878 52.7816 107.699 52.4906 108.732 52.4906C109.765 52.4906 110.588 52.7816 111.2 53.363C111.813 53.945 112.119 54.785 112.119 55.8843V57.8574C112.119 58.9567 111.813 59.7967 111.2 60.3787C110.588 60.9608 109.765 61.2511 108.732 61.2511ZM108.732 60.0839C109.397 60.0839 109.909 59.8894 110.27 59.5004C110.63 59.1113 110.81 58.5797 110.81 57.9057V55.836C110.81 55.162 110.63 54.6304 110.27 54.2413C109.909 53.8523 109.397 53.6578 108.732 53.6578C108.068 53.6578 107.575 53.8523 107.207 54.2413C106.839 54.6304 106.654 55.162 106.654 55.836V57.9057C106.654 58.5797 106.839 59.1113 107.207 59.5004C107.575 59.8894 108.083 60.0839 108.732 60.0839Z" fill="#EFEAEA"/>
<path d="M113.656 61.083V52.6595H116.995C117.508 52.6595 117.966 52.7621 118.37 52.9664C118.774 53.1707 119.091 53.4595 119.319 53.8327C119.547 54.206 119.661 54.6531 119.661 55.1741V55.3309C119.661 55.8527 119.543 56.302 119.307 56.679C119.071 57.056 118.752 57.3448 118.352 57.5453C117.952 57.7459 117.499 57.8462 116.994 57.8462H114.953V61.083H113.655H113.656ZM114.953 56.667H116.863C117.32 56.667 117.684 56.5463 117.956 56.3058C118.229 56.0653 118.365 55.7365 118.365 55.3188V55.1982C118.365 54.773 118.229 54.4405 117.956 54.1992C117.684 53.9587 117.319 53.838 116.863 53.838H114.953V56.6662V56.667Z" fill="#EFEAEA"/>
<path d="M120.899 61.083V52.6595H126.195V53.8388H122.195V56.2575H125.859V57.4368H122.195V59.9038H126.255V61.083H120.899Z" fill="#EFEAEA"/>
<path d="M127.613 61.083V52.6595H131.144C131.665 52.6595 132.123 52.75 132.519 52.9302C132.916 53.1104 133.223 53.3698 133.444 53.7061C133.664 54.0431 133.774 54.4442 133.774 54.9094V55.0421C133.774 55.5714 133.648 55.9952 133.396 56.3118C133.144 56.6285 132.837 56.8517 132.477 56.9799V57.1721C132.781 57.188 133.025 57.2905 133.21 57.479C133.394 57.6675 133.486 57.9382 133.486 58.291V61.083H132.177V58.472C132.177 58.2556 132.12 58.0829 132.009 57.9548C131.897 57.8266 131.716 57.7625 131.468 57.7625H128.91V61.0838H127.612L127.613 61.083ZM128.91 56.5825H131C131.465 56.5825 131.825 56.4641 132.081 56.2274C132.337 55.9906 132.466 55.6679 132.466 55.2585V55.162C132.466 54.7526 132.339 54.4299 132.087 54.1931C131.835 53.9564 131.472 53.838 131 53.838H128.91V56.5818V56.5825Z" fill="#EFEAEA"/>
<path d="M138.062 61.2511C137.429 61.2511 136.869 61.1388 136.381 60.9141C135.893 60.6894 135.51 60.3584 135.234 59.9211C134.958 59.4838 134.82 58.9522 134.82 58.3264V58.0256H136.105V58.3264C136.105 58.9205 136.283 59.3654 136.639 59.6625C136.995 59.9595 137.47 60.1081 138.062 60.1081C138.655 60.1081 139.115 59.9814 139.42 59.7288C139.724 59.4762 139.876 59.149 139.876 58.7479C139.876 58.4832 139.804 58.2668 139.66 58.098C139.516 57.9291 139.312 57.7949 139.047 57.6946C138.783 57.5943 138.467 57.5 138.098 57.4118L137.654 57.3033C137.117 57.1751 136.651 57.0167 136.255 56.8283C135.858 56.6398 135.552 56.3887 135.336 56.0765C135.12 55.7636 135.011 55.3625 135.011 54.8732C135.011 54.3838 135.133 53.9503 135.378 53.5974C135.623 53.2446 135.96 52.9716 136.393 52.7794C136.826 52.5871 137.334 52.4906 137.919 52.4906C138.503 52.4906 139.026 52.5909 139.486 52.7914C139.947 52.992 140.309 53.2891 140.573 53.6819C140.837 54.0747 140.97 54.5686 140.97 55.162V55.5955H139.684V55.162C139.684 54.8008 139.61 54.5083 139.462 54.2836C139.314 54.0589 139.108 53.8945 138.844 53.7905C138.579 53.6864 138.271 53.6336 137.919 53.6336C137.406 53.6336 137.008 53.7399 136.724 53.9526C136.439 54.1652 136.297 54.46 136.297 54.837C136.297 55.0941 136.359 55.3045 136.483 55.4688C136.607 55.6332 136.789 55.7674 137.029 55.8722C137.269 55.9763 137.569 56.069 137.93 56.1489L138.375 56.2575C138.919 56.3781 139.4 56.5327 139.816 56.7212C140.232 56.9097 140.561 57.1645 140.801 57.485C141.041 57.8062 141.161 58.2193 141.161 58.7245C141.161 59.2297 141.035 59.6715 140.783 60.0485C140.531 60.4255 140.173 60.7203 139.708 60.9329C139.244 61.1455 138.695 61.2519 138.062 61.2519V61.2511Z" fill="#EFEAEA"/>
<path d="M73.3119 74.2739C72.2869 74.2739 71.4741 73.9828 70.8736 73.4015C70.273 72.8202 69.9728 71.9795 69.9728 70.8802V68.907C69.9728 67.8077 70.273 66.9678 70.8736 66.3857C71.4741 65.8044 72.2869 65.5134 73.3119 65.5134C74.3369 65.5134 75.0992 65.7946 75.6478 66.3556C76.1965 66.9173 76.4704 67.6833 76.4704 68.6537V68.7261H75.185V68.6175C75.185 68.0482 75.0307 67.5823 74.7229 67.2219C74.4144 66.8607 73.944 66.6805 73.3119 66.6805C72.6797 66.6805 72.171 66.8751 71.8105 67.2641C71.4501 67.6532 71.2702 68.193 71.2702 68.8829V70.9043C71.2702 71.5859 71.4501 72.1235 71.8105 72.5171C72.171 72.9099 72.6715 73.1067 73.3119 73.1067C73.9523 73.1067 74.4152 72.9242 74.7229 72.5593C75.0307 72.1944 75.185 71.7307 75.185 71.1697V70.9654H76.4704V71.1335C76.4704 72.1047 76.1957 72.8707 75.6478 73.4317C75.0992 73.9934 74.3203 74.2739 73.3119 74.2739Z" fill="#EFEAEA"/>
<path d="M81.0709 74.2739C80.0376 74.2739 79.2173 73.9828 78.6085 73.4015C77.9997 72.8202 77.6956 71.9795 77.6956 70.8802V68.907C77.6956 67.8077 77.9997 66.9678 78.6085 66.3857C79.2165 65.8044 80.0376 65.5134 81.0709 65.5134C82.1041 65.5134 82.9267 65.8044 83.5393 66.3857C84.1518 66.9678 84.4581 67.8077 84.4581 68.907V70.8802C84.4581 71.9795 84.1518 72.8194 83.5393 73.4015C82.9267 73.9836 82.1041 74.2739 81.0709 74.2739ZM81.0709 73.1067C81.7354 73.1067 82.2479 72.9122 82.6083 72.5231C82.9688 72.1341 83.1487 71.6025 83.1487 70.9284V68.8588C83.1487 68.1847 82.9688 67.6532 82.6083 67.2641C82.2479 66.8751 81.7354 66.6805 81.0709 66.6805C80.4063 66.6805 79.9134 66.8751 79.5454 67.2641C79.1774 67.6532 78.993 68.1847 78.993 68.8588V70.9284C78.993 71.6025 79.1774 72.1341 79.5454 72.5231C79.9134 72.9122 80.4221 73.1067 81.0709 73.1067Z" fill="#EFEAEA"/>
<path d="M85.9955 74.1058V65.6823H88.4338L90.2716 73.2395H90.4635L92.3013 65.6823H94.7396V74.1058H93.4783V66.5969H93.2864L91.4607 74.1058H89.2745L87.4487 66.5969H87.2568V74.1058H85.9955Z" fill="#EFEAEA"/>
<path d="M96.4931 74.1058V65.6823H98.9314L100.769 73.2395H100.961L102.799 65.6823H105.237V74.1058H103.976V66.5969H103.784L101.958 74.1058H99.772L97.9463 66.5969H97.7544V74.1058H96.4931Z" fill="#EFEAEA"/>
<path d="M110.137 74.2739C109.473 74.2739 108.902 74.1533 108.426 73.9127C107.949 73.6722 107.581 73.3254 107.321 72.8715C107.061 72.4184 106.93 71.8664 106.93 71.2165V65.6808H108.24V71.2527C108.24 71.8468 108.404 72.3037 108.732 72.6249C109.06 72.9461 109.529 73.106 110.137 73.106C110.745 73.106 111.214 72.9454 111.542 72.6249C111.87 72.3045 112.034 71.8468 112.034 71.2527V65.6808H113.332V71.2165C113.332 71.8664 113.204 72.4184 112.947 72.8715C112.691 73.3246 112.323 73.6715 111.842 73.9127C111.362 74.1533 110.793 74.2739 110.137 74.2739Z" fill="#EFEAEA"/>
<path d="M115.026 74.1058V65.6823H117.524L119.806 73.2395H119.998V65.6823H121.283V74.1058H118.785L116.503 66.5366H116.311V74.1058H115.026Z" fill="#EFEAEA"/>
<path d="M123.037 74.1058V65.6823H124.334V74.1058H123.037Z" fill="#EFEAEA"/>
<path d="M128.094 74.1058V66.8615H125.512V65.6823H131.974V66.8615H129.392V74.1058H128.095H128.094Z" fill="#EFEAEA"/>
<path d="M135.325 74.1058V71.0491L132.406 65.6823H133.871L135.889 69.4967H136.069L138.086 65.6823H139.552L136.633 71.0491V74.1058H135.324H135.325Z" fill="#EFEAEA"/>
</svg>
