<svg width="19" height="26" viewBox="0 0 19 26" fill="none" xmlns="http://www.w3.org/2000/svg">
<path fill-rule="evenodd" clip-rule="evenodd" d="M3.86874 25.5225L3.86874 24.227L5.47764 24.227L5.47764 22.9315L7.08662 22.9315L7.08662 21.6362L8.69552 21.6362L8.69552 20.3407L10.3045 20.3407L10.3045 19.2612L11.9134 19.2612L11.9134 18.1816L13.5224 18.1816L13.5224 17.1023L15.1313 17.1023L15.1313 16.0227L16.7403 16.0227L16.7403 14.2955L18.0811 14.2955L18.0811 13.1081L0.919011 13.2136L0.919012 25.2208L0.919012 25.5225L3.86874 25.5225Z" fill="#D9D9D9"/>
<path d="M18.0811 11.9206L16.7403 11.9206L16.7403 9.97728L15.1314 9.97728L15.1314 8.89773L13.5224 8.89773L13.5224 7.8184L11.9135 7.8184L11.9135 6.73885L10.3045 6.73885L10.3045 5.6593L8.6956 5.6593L8.6956 4.36382L7.08662 4.36382L7.08662 3.06852L5.47764 3.06852L5.47764 1.77301L3.86874 1.77301L3.86874 0.477538L0.91901 0.477538L0.91901 1.20636L0.919011 13.2136L18.0811 13.1081L18.0811 11.9206Z" fill="#ACB7DF"/>
</svg>
